<?xml version="1.0" encoding="utf-8"?>
<!-- Generator: Adobe Illustrator 16.0.4, SVG Export Plug-In . SVG Version: 6.00 Build 0)  -->
<!DOCTYPE svg PUBLIC "-//W3C//DTD SVG 1.1//EN" "http://www.w3.org/Graphics/SVG/1.1/DTD/svg11.dtd">
<svg version="1.1" id="_x30_" xmlns="http://www.w3.org/2000/svg" xmlns:xlink="http://www.w3.org/1999/xlink" x="0px" y="0px"
	 width="595.28px" height="238.488px" viewBox="0 0 595.28 238.488" enable-background="new 0 0 595.28 238.488"
	 xml:space="preserve">
<g id="HATCH">
	
		<rect x="-0.049" y="56.23" fill-rule="evenodd" clip-rule="evenodd" fill="none" stroke="#000000" stroke-miterlimit="10" width="217.641" height="17.382"/>
	<path fill="none" stroke="#000000" stroke-linecap="round" stroke-linejoin="round" stroke-miterlimit="10" d="M-0.049,66.964
		L10.685,56.23 M4.225,73.612L21.607,56.23 M15.147,73.612L32.529,56.23 M26.07,73.612L43.452,56.23 M36.992,73.612L54.374,56.23
		 M47.915,73.612L65.296,56.23 M58.837,73.612L76.219,56.23 M69.759,73.612L87.141,56.23 M80.682,73.612L98.063,56.23
		 M91.604,73.612l17.382-17.382 M102.526,73.612l17.382-17.382 M113.449,73.612l17.382-17.382 M124.371,73.612l17.382-17.382
		 M135.293,73.612l17.382-17.382 M146.216,73.612l17.382-17.382 M157.139,73.612l17.382-17.382 M168.061,73.612l17.382-17.382
		 M178.983,73.612l17.382-17.382 M189.905,73.612l17.382-17.382 M200.828,73.612l16.764-16.765 M211.75,73.612l5.842-5.842"/>
</g>
<g id="LWPOLYLINE">
	
		<rect x="-0.049" y="56.23" fill="none" stroke="#000000" stroke-width="0.8504" stroke-linecap="round" stroke-linejoin="round" stroke-miterlimit="10" width="217.641" height="109.988"/>
</g>
<g id="CIRCLE">
	
		<path fill="none" stroke="#000000" stroke-width="0.8504" stroke-linecap="round" stroke-linejoin="round" stroke-miterlimit="10" d="
		M34.358,180.137c0-7.649-6.201-13.851-13.851-13.851s-13.851,6.201-13.851,13.851c0,7.65,6.201,13.852,13.851,13.852
		S34.358,187.787,34.358,180.137L34.358,180.137z"/>
</g>
<g id="CIRCLE_1_">
	
		<path fill="none" stroke="#000000" stroke-width="0.8504" stroke-linecap="round" stroke-linejoin="round" stroke-miterlimit="10" d="
		M208.12,179.094c0-6.982-5.661-12.644-12.644-12.644s-12.644,5.661-12.644,12.644c0,6.983,5.661,12.644,12.644,12.644
		S208.12,186.077,208.12,179.094L208.12,179.094z"/>
</g>
<g id="LINE">
	
		<line fill="none" stroke="#000000" stroke-width="0.8504" stroke-linecap="round" stroke-linejoin="round" stroke-miterlimit="10" x1="-0.049" y1="73.612" x2="217.592" y2="73.612"/>
</g>
<g id="LINE_1_">
	
		<line fill="none" stroke="#000000" stroke-width="0.8504" stroke-linecap="round" stroke-linejoin="round" stroke-miterlimit="10" x1="30.278" y1="133.07" x2="126.285" y2="133.07"/>
</g>
<g id="LINE_2_">
	
		<line fill="none" stroke="#000000" stroke-width="0.8504" stroke-linecap="round" stroke-linejoin="round" stroke-miterlimit="10" x1="30.278" y1="133.07" x2="30.278" y2="31.192"/>
</g>
<g id="LINE_3_">
	
		<line fill="none" stroke="#000000" stroke-width="0.8504" stroke-linecap="round" stroke-linejoin="round" stroke-miterlimit="10" x1="227.895" y1="112.159" x2="304.422" y2="112.159"/>
</g>
<g id="LINE_4_">
	
		<line fill="none" stroke="#000000" stroke-width="0.8504" stroke-linecap="round" stroke-linejoin="round" stroke-miterlimit="10" x1="126.285" y1="133.07" x2="119.731" y2="126.487"/>
</g>
<g id="LINE_5_">
	
		<line fill="none" stroke="#000000" stroke-width="0.8504" stroke-linecap="round" stroke-linejoin="round" stroke-miterlimit="10" x1="126.285" y1="133.07" x2="119.731" y2="139.745"/>
</g>
<g id="LINE_6_">
	
		<line fill="none" stroke="#000000" stroke-width="0.8504" stroke-linecap="round" stroke-linejoin="round" stroke-miterlimit="10" x1="30.278" y1="31.192" x2="35.856" y2="37.746"/>
</g>
<g id="LINE_7_">
	
		<line fill="none" stroke="#000000" stroke-width="0.8504" stroke-linecap="round" stroke-linejoin="round" stroke-miterlimit="10" x1="30.278" y1="31.192" x2="23.716" y2="37.746"/>
</g>
<g id="LINE_8_">
	
		<line fill="none" stroke="#000000" stroke-width="0.8504" stroke-linecap="round" stroke-linejoin="round" stroke-miterlimit="10" x1="30.278" y1="31.192" x2="30.278" y2="37.746"/>
</g>
<g id="LINE_9_">
	
		<line fill="none" stroke="#000000" stroke-width="0.8504" stroke-linecap="round" stroke-linejoin="round" stroke-miterlimit="10" x1="126.285" y1="133.07" x2="119.731" y2="133.07"/>
</g>
<g id="LINE_10_">
	
		<line fill="none" stroke="#000000" stroke-width="0.8504" stroke-linecap="round" stroke-linejoin="round" stroke-miterlimit="10" x1="304.422" y1="112.159" x2="297.869" y2="112.159"/>
</g>
<g id="LINE_11_">
	
		<line fill="none" stroke="#000000" stroke-width="0.8504" stroke-linecap="round" stroke-linejoin="round" stroke-miterlimit="10" x1="304.422" y1="112.159" x2="297.869" y2="105.576"/>
</g>
<g id="LINE_12_">
	
		<line fill="none" stroke="#000000" stroke-width="0.8504" stroke-linecap="round" stroke-linejoin="round" stroke-miterlimit="10" x1="304.422" y1="112.159" x2="297.869" y2="118.834"/>
</g>
<g id="LINE_13_">
	
		<line fill="none" stroke="#000000" stroke-width="0.8504" stroke-linecap="round" stroke-linejoin="round" stroke-miterlimit="10" x1="304.422" y1="112.159" x2="297.869" y2="105.576"/>
</g>
<g id="LINE_14_">
	
		<line fill="none" stroke="#000000" stroke-width="0.8504" stroke-linecap="round" stroke-linejoin="round" stroke-miterlimit="10" x1="304.422" y1="112.159" x2="297.869" y2="118.834"/>
</g>
<g id="MTEXT">
	<text transform="matrix(1 0 0 1 135.5361 145.043)" font-family="'ArialMT'" font-size="32.1246">x&apos;</text>
</g>
<g id="MTEXT_1_">
	<text transform="matrix(1 0 0 1 13.7217 160.0996)" font-family="'ArialMT'" font-size="32.1246">O&apos;</text>
</g>
<g id="MTEXT_2_">
	<text transform="matrix(1 0 0 1 -0.1001 38.0479)" font-family="'ArialMT'" font-size="32.1246">y&apos;</text>
</g>
<g id="MTEXT_3_">
	<text transform="matrix(1 0 0 1 241.7681 98.6934)" font-family="'ArialMT'" font-size="32.1246">V</text>
	<text transform="matrix(1 0 0 1 260.5669 105.8613)" font-family="'ArialMT'" font-size="22.4872">rel</text>
</g>
<g id="LINE_15_">
	
		<line fill="none" stroke="#000000" stroke-width="0.8504" stroke-linecap="round" stroke-linejoin="round" stroke-miterlimit="10" x1="240.388" y1="67.269" x2="261.29" y2="67.269"/>
</g>
<g id="LINE_16_">
	
		<line fill="none" stroke="#000000" stroke-width="0.8504" stroke-linecap="round" stroke-linejoin="round" stroke-miterlimit="10" x1="261.29" y1="67.269" x2="257.71" y2="67.269"/>
</g>
<g id="LINE_17_">
	
		<line fill="none" stroke="#000000" stroke-width="0.8504" stroke-linecap="round" stroke-linejoin="round" stroke-miterlimit="10" x1="261.29" y1="67.269" x2="259.5" y2="65.471"/>
</g>
<g id="LINE_18_">
	
		<line fill="none" stroke="#000000" stroke-width="0.8504" stroke-linecap="round" stroke-linejoin="round" stroke-miterlimit="10" x1="261.29" y1="67.269" x2="259.5" y2="69.092"/>
</g>
<g id="LINE_19_">
	
		<line fill="none" stroke="#000000" stroke-width="0.8504" stroke-linecap="round" stroke-linejoin="round" stroke-miterlimit="10" x1="261.29" y1="67.269" x2="259.5" y2="65.471"/>
</g>
<g id="LINE_20_">
	
		<line fill="none" stroke="#000000" stroke-width="0.8504" stroke-linecap="round" stroke-linejoin="round" stroke-miterlimit="10" x1="261.29" y1="67.269" x2="259.5" y2="69.092"/>
</g>
<g id="LINE_21_">
	
		<line fill="none" stroke="#000000" stroke-width="0.8504" stroke-linecap="round" stroke-linejoin="round" stroke-miterlimit="10" x1="376.602" y1="174.812" x2="595.049" y2="174.812"/>
</g>
<g id="LINE_22_">
	
		<line fill="none" stroke="#000000" stroke-width="0.8504" stroke-linecap="round" stroke-linejoin="round" stroke-miterlimit="10" x1="595.049" y1="38.825" x2="376.602" y2="38.825"/>
</g>
<g id="LINE_23_">
	
		<line fill="none" stroke="#000000" stroke-width="0.8504" stroke-linecap="round" stroke-linejoin="round" stroke-miterlimit="10" x1="485.825" y1="174.812" x2="436.298" y2="223.634"/>
</g>
<g id="LINE_24_">
	
		<line fill="none" stroke="#000000" stroke-width="0.8504" stroke-linecap="round" stroke-linejoin="round" stroke-miterlimit="10" x1="436.298" y1="223.634" x2="485.825" y2="174.812"/>
</g>
<g id="LINE_25_">
	
		<line fill="none" stroke="#000000" stroke-width="0.8504" stroke-linecap="round" stroke-linejoin="round" stroke-miterlimit="10" x1="485.825" y1="174.812" x2="534.091" y2="223.634"/>
</g>
<g id="LINE_26_">
	
		<line fill="none" stroke="#000000" stroke-width="0.8504" stroke-linecap="round" stroke-linejoin="round" stroke-miterlimit="10" x1="463.98" y1="38.825" x2="463.98" y2="49.747"/>
</g>
<g id="LINE_27_">
	
		<line fill="none" stroke="#000000" stroke-width="0.8504" stroke-linecap="round" stroke-linejoin="round" stroke-miterlimit="10" x1="463.98" y1="49.747" x2="507.67" y2="49.747"/>
</g>
<g id="LINE_28_">
	
		<line fill="none" stroke="#000000" stroke-width="0.8504" stroke-linecap="round" stroke-linejoin="round" stroke-miterlimit="10" x1="507.67" y1="49.747" x2="507.67" y2="38.825"/>
</g>
<g id="HATCH_1_">
	<rect x="463.98" y="38.825" fill-rule="evenodd" clip-rule="evenodd" fill="none" width="43.689" height="10.922"/>
	<path fill="none" stroke="#000000" stroke-linecap="round" stroke-linejoin="round" stroke-miterlimit="10" d="M463.98,39.83
		l1.005-1.005 M464.985,49.747l10.923-10.922 M475.908,49.747l10.922-10.922 M486.83,49.747l10.923-10.922 M497.753,49.747
		l9.917-9.917"/>
</g>
<g id="LWPOLYLINE_1_">
	
		<rect x="463.98" y="38.825" fill="none" stroke="#000000" stroke-width="0.8504" stroke-linecap="round" stroke-linejoin="round" stroke-miterlimit="10" width="43.689" height="10.922"/>
</g>
<g id="LINE_30_">
	
		<line fill="none" stroke="#000000" stroke-width="0.8504" stroke-linecap="round" stroke-linejoin="round" stroke-miterlimit="10" x1="468.35" y1="174.812" x2="468.35" y2="49.747"/>
</g>
<g id="LINE_31_">
	
		<line fill="none" stroke="#000000" stroke-width="0.8504" stroke-linecap="round" stroke-linejoin="round" stroke-miterlimit="10" x1="503.301" y1="49.747" x2="503.301" y2="174.812"/>
</g>
<g id="LINE_32_">
	
		<line fill="none" stroke="#000000" stroke-width="0.8504" stroke-linecap="round" stroke-linejoin="round" stroke-miterlimit="10" x1="503.301" y1="174.812" x2="509.884" y2="168.259"/>
</g>
<g id="LINE_33_">
	
		<line fill="none" stroke="#000000" stroke-width="0.8504" stroke-linecap="round" stroke-linejoin="round" stroke-miterlimit="10" x1="503.301" y1="174.812" x2="496.626" y2="168.259"/>
</g>
<g id="LINE_34_">
	
		<line fill="none" stroke="#000000" stroke-width="0.8504" stroke-linecap="round" stroke-linejoin="round" stroke-miterlimit="10" x1="503.301" y1="174.812" x2="509.884" y2="168.259"/>
</g>
<g id="LINE_35_">
	
		<line fill="none" stroke="#000000" stroke-width="0.8504" stroke-linecap="round" stroke-linejoin="round" stroke-miterlimit="10" x1="503.301" y1="174.812" x2="496.626" y2="168.259"/>
</g>
<g id="LINE_36_">
	
		<line fill="none" stroke="#000000" stroke-width="0.8504" stroke-linecap="round" stroke-linejoin="round" stroke-miterlimit="10" x1="468.35" y1="49.747" x2="461.767" y2="56.301"/>
</g>
<g id="LINE_37_">
	
		<line fill="none" stroke="#000000" stroke-width="0.8504" stroke-linecap="round" stroke-linejoin="round" stroke-miterlimit="10" x1="468.35" y1="49.747" x2="475.024" y2="56.301"/>
</g>
<g id="LINE_38_">
	
		<line fill="none" stroke="#000000" stroke-width="0.8504" stroke-linecap="round" stroke-linejoin="round" stroke-miterlimit="10" x1="468.35" y1="49.747" x2="461.767" y2="56.301"/>
</g>
<g id="LINE_39_">
	
		<line fill="none" stroke="#000000" stroke-width="0.8504" stroke-linecap="round" stroke-linejoin="round" stroke-miterlimit="10" x1="468.35" y1="49.747" x2="475.024" y2="56.301"/>
</g>
</svg>
